<?xml version="1.0" encoding="utf-8"?>
<!-- Generator: Adobe Illustrator 16.0.0, SVG Export Plug-In . SVG Version: 6.00 Build 0)  -->
<!DOCTYPE svg PUBLIC "-//W3C//DTD SVG 1.1//EN" "http://www.w3.org/Graphics/SVG/1.1/DTD/svg11.dtd">
<svg version="1.1" id="Layer_1" xmlns="http://www.w3.org/2000/svg" xmlns:xlink="http://www.w3.org/1999/xlink" x="0px" y="0px"
	 width="64px" height="64px" viewBox="0 0 64 64" enable-background="new 0 0 64 64" xml:space="preserve">
<circle fill="none" stroke="#3FA9F5" stroke-miterlimit="10" cx="32" cy="31.668" r="23"/>
<g>
	<g>
		<g id="XMLID_1_">
			<g>
				<path fill="#3FA9F5" d="M32.617,32.026c-1.761-4.541-2.216-8.729-1.243-10.201c1.423,0.295,3.802,3.856,5.624,8.556
					c1.783,4.596,2.439,8.75,1.672,10.034C36.936,40.091,34.41,36.65,32.617,32.026z"/>
				<path fill="#3FA9F5" d="M31.374,21.825c-0.974,1.472-0.518,5.661,1.243,10.201c1.793,4.624,4.319,8.064,6.053,8.389
					c-0.105,0.17-0.239,0.297-0.397,0.358c-0.047,0.018-0.109,0.021-0.16,0.029l-0.265-0.047l-16.757-2.607l-2.797,1.085
					l-0.904-2.331l-0.181-0.466l2.797-1.085l10.383-12.94l0.237-0.274l0.167-0.205c0.04-0.037,0.092-0.068,0.139-0.086
					C31.063,21.796,31.211,21.792,31.374,21.825z"/>
			</g>
			<g>
				<path fill="none" stroke="#FFFFFF" stroke-miterlimit="10" d="M31.474,21.668c-0.036,0.046-0.071,0.092-0.1,0.157
					c-0.974,1.472-0.518,5.661,1.243,10.201c1.793,4.624,4.319,8.064,6.053,8.389c0.025,0.012,0.062,0.02,0.083,0.021"/>
			</g>
		</g>
	</g>
	<line fill="none" stroke="#3FA9F5" stroke-miterlimit="10" x1="37.244" y1="22.483" x2="40.209" y2="19.189"/>
	<line fill="none" stroke="#3FA9F5" stroke-miterlimit="10" x1="40.051" y1="29.725" x2="44.713" y2="27.917"/>
	<line fill="none" stroke="#3FA9F5" stroke-miterlimit="10" x1="42.533" y1="36.121" x2="46.973" y2="36.629"/>
	<line fill="none" stroke="#FFFFFF" stroke-miterlimit="10" x1="20.035" y1="34.807" x2="21.481" y2="38.536"/>
</g>
</svg>
