<?xml version="1.0" encoding="utf-8"?>
<!-- Generator: Adobe Illustrator 16.0.0, SVG Export Plug-In . SVG Version: 6.00 Build 0)  -->
<!DOCTYPE svg PUBLIC "-//W3C//DTD SVG 1.1//EN" "http://www.w3.org/Graphics/SVG/1.1/DTD/svg11.dtd">
<svg version="1.1" id="Layer_1" xmlns="http://www.w3.org/2000/svg" xmlns:xlink="http://www.w3.org/1999/xlink" x="0px" y="0px"
	 width="64px" height="64px" viewBox="0 0 64 64" enable-background="new 0 0 64 64" xml:space="preserve">
<circle fill="none" stroke="#3FA9F5" stroke-miterlimit="10" cx="32" cy="31.668" r="23"/>
<g>
	<g id="XMLID_1_">
		<g>
			<path fill="#3FA9F5" d="M32.56,24.35c2.74-3.12,5.82-4.88,6.89-3.94l-2.57,3.7L37.32,26h2.1v-0.05l2.54-3.28l0.49,0.38
				c1.08,0.94-0.26,4.23-3,7.35c-0.45,0.51-1.63,0.25-2.97-0.55c-0.58-0.34-1.171-0.76-1.761-1.28c-0.5-0.44-0.92-0.89-1.27-1.33
				C32.49,26.03,32.09,24.88,32.56,24.35z"/>
			<path fill="#3FA9F5" d="M33.45,27.24c0.35,0.44,0.77,0.89,1.27,1.33c0.59,0.52,1.181,0.94,1.761,1.28l-12.03,13.7l-0.26-0.229
				l-2.8-2.36L33.45,27.24z"/>
		</g>
		<g>
		</g>
	</g>
</g>
</svg>
