<?xml version="1.0" encoding="utf-8"?>
<!-- Generator: Adobe Illustrator 16.0.0, SVG Export Plug-In . SVG Version: 6.00 Build 0)  -->
<!DOCTYPE svg PUBLIC "-//W3C//DTD SVG 1.1//EN" "http://www.w3.org/Graphics/SVG/1.1/DTD/svg11.dtd">
<svg version="1.1" id="Layer_1" xmlns="http://www.w3.org/2000/svg" xmlns:xlink="http://www.w3.org/1999/xlink" x="0px" y="0px"
	 width="64px" height="64px" viewBox="0 0 64 64" enable-background="new 0 0 64 64" xml:space="preserve">
<circle fill="none" stroke="#3FA9F5" stroke-miterlimit="10" cx="32" cy="31.668" r="23"/>
<g>
	<g id="XMLID_1_">
		<g>
			<polygon fill="#3FA9F5" points="36.11,31.14 20.73,44.63 19.3,43.02 18.88,42.53 34.3,29.39 			"/>
			<polygon fill="#3FA9F5" points="34.77,22.97 36.39,24.47 36.44,24.52 34.2,26.62 34.18,26.6 32.54,24.91 32.52,24.91 
				31.12,26.22 28.96,23.86 33.25,19.9 33.41,20.07 35.59,21.72 34.71,22.92 			"/>
			<polygon fill="#3FA9F5" points="43.69,28.99 45.7,31.46 41.19,35.17 41.05,35 38.96,33.23 39.94,32.05 38.96,30.88 41.05,28.99 
				42.21,30.22 			"/>
			<polygon fill="#3FA9F5" points="38.96,30.88 37.66,32.05 37.37,32.35 36.11,31.14 34.3,29.39 32.79,27.94 34.2,26.62 
				36.44,24.52 37.66,23.37 42.21,27.94 41.05,28.99 			"/>
		</g>
		<g>
		</g>
	</g>
</g>
</svg>
